<?xml version="1.0" encoding="utf-8"?>
<!-- Generator: Adobe Illustrator 23.0.3, SVG Export Plug-In . SVG Version: 6.00 Build 0)  -->
<svg version="1.1" id="b40fa135-dc34-420f-a119-af5de4e15dee"
	 xmlns="http://www.w3.org/2000/svg" xmlns:xlink="http://www.w3.org/1999/xlink" x="0px" y="0px" viewBox="0 0 1064 742"
	 style="enable-background:new 0 0 1064 742;" xml:space="preserve">
<style type="text/css">
	.st0{fill:#3F3D56;}
	.st1{fill:#BE1D7B;}
	.st2{fill:#2F2E41;}
	.st3{fill:#98825D;}
	.st4{fill:#D0CDE1;}
</style>
<title>composition</title>
<circle class="st0" cx="698" cy="695" r="46"/>
<path class="st1" d="M698.2,708.8l-23-23c-1.6-1.6-1.6-4.1,0-5.7s4.1-1.6,5.7,0l0,0l17,17l54.2-61.8c1.5-1.7,4-1.8,5.6-0.4
	s1.8,4,0.4,5.6L698.2,708.8z"/>
<rect x="254" y="31.5" class="st0" width="488" height="580"/>
<path class="st2" d="M470,159.5h118l0,0V341l0,0H441.9l0,0V187.6C441.9,172.1,454.5,159.5,470,159.5L470,159.5z"/>
<path class="st3" d="M452.6,296.4c0,0-27.2-1.7-45.9,15.3s-23.8,23.8-23.8,23.8s-97,57.9-61.3,78.3c35.7,20.4,80,45.9,80,45.9
	s0,51.1,18.7,49.3s1.7-59.6,1.7-59.6l-64.7-49.3l64.7-37.4l22.1,22.1C444.1,384.9,462.8,316.8,452.6,296.4z"/>
<path class="st2" d="M615.2,611.5H322.6c17.5-70.4,54.4-110.7,80.5-131.5c7.1-5.7,14.7-10.8,22.6-15.3c4.1-2.3,6.5-3.3,6.5-3.3
	l1.6-9.5l1.8-10.9L553,468.3l-0.9,9.6l-0.8,9.1L615.2,611.5z"/>
<path class="st3" d="M592.2,332.1c0,0,32.3,10.2,28.9,39.1s-11.9,131-11.9,131l47.6,103.8c0,0,49.3,57.9,20.4,68.1
	S633,609.5,633,609.5l-64.7-95.3l5.1-102.1l5.1-56.2L592.2,332.1z"/>
<circle class="st3" cx="522.4" cy="213" r="51.1"/>
<path class="st3" d="M498.6,243.6c0,0,23.8,44.2-35.7,54.5l-6.8,34l56.2,100.4l66.4-57.9l13.6-39.1c0,0-66.4-30.6-42.5-91.9H498.6z"
	/>
<path class="st1" d="M517.3,395.1l-42.5-57.9l-11.9-45.9h-20.4l6.8,51.1l-9.6,15.2c-9,14.2-11.7,31.5-7.4,47.8l0,0l-1.7,45.9
	l124.2,27.2l18.7-30.6c0,0,0.7-0.5,1.7-1.4c15-12.7,20.1-33.5,12.8-51.7l-6-15l22.1-49.3l-20.4-6.8l-17,44.2L517.3,395.1z"/>
<path class="st2" d="M526,129c0,0-57.6-3.6-70.8,32.2s-36.5,54.6-36.5,54.6s-36.6,25.5-18.3,70.9c0,0-57,38.3-19.3,72.3
	c0,0-2.2,34,19.9,57.3c0,0,17.7,8.9,11.1,14.3s44.3,1.8,39.8-46.5s25.5-82.4,25.5-82.4s-28.8-62.6-15.5-84.1
	c8.1-13,11.5-22.8,18.2-28.4c3.7-3.1,7.2-6.4,10.3-10.1c4.1-4.9,12.5-11.6,25.7-8c19.9,5.4,24.3,21.5,24.3,21.5s14.4,38.5,38.7,56.4
	s-18.8,49.2-18.8,49.2s7.5,36.9,27,58.7s-5.6,40.9-7.1,43.3c-3.3,5.6-16.6,40.8,38.2,41c0,0,12.7-26.7,30.4-42.8s4.4-62.6,4.4-62.6
	s26.6-16.1-2.2-55.5c0,0,8.9-35.8-15.5-59.1C635.6,221.2,601.3,116.5,526,129z"/>
<ellipse class="st3" cx="470.3" cy="214.1" rx="6.1" ry="9.8"/>
<rect x="1" y="31" class="st4" width="265" height="581"/>
<rect x="734" y="31" class="st4" width="265" height="581"/>
<rect x="617" y="740" class="st0" width="163" height="2"/>
<path class="st1" d="M879.4,355.7c-21.8,0.5-39.1,16.2-39.1,16.2s18,15,39.7,14.5s39.1-16.2,39.1-16.2S901.2,355.2,879.4,355.7z"/>
<path class="st1" d="M988.9,281.4c-19.7,9.3-42.2,3-42.2,3s9.3-21.5,29-30.8s42.2-3,42.2-3S1008.5,272,988.9,281.4z"/>
<path class="st0" d="M986.9,272.1c-21.7-2-40.7,11.7-40.7,11.7s16.2,16.9,37.9,18.9s40.7-11.7,40.7-11.7S1008.5,274.1,986.9,272.1z"
	/>
<path class="st0" d="M907.4,275.8c2.1,21.7-11.6,40.7-11.6,40.7s-17-16.1-19.1-37.8s11.6-40.7,11.6-40.7S905.3,254.2,907.4,275.8z"
	/>
<path class="st0" d="M805.3,408.7c11.4,18.6,7.5,41.7,7.5,41.7s-22.3-7-33.7-25.6s-7.5-41.7-7.5-41.7S793.9,390.2,805.3,408.7z"/>
<path class="st0" d="M838.3,610.6l-1.7-1.1c5.8-8.5,9-18.5,9.2-28.8c0-15.1-7.4-29-14.6-42.5c-1.3-2.5-2.7-5-3.9-7.5
	c-5.3-10.2-9.6-20.8-12.7-31.9c-11.1-41.2-0.2-89.9,29.2-130.1c23.3-31.9,58.1-59.8,106.3-85.4l0.9,1.8
	c-47.9,25.4-82.4,53.1-105.6,84.8c-29,39.8-39.8,87.8-28.9,128.4c3.1,10.9,7.3,21.5,12.6,31.5c1.3,2.5,2.6,5,3.9,7.5
	c7.3,13.7,14.8,27.8,14.8,43.4C847.6,591.4,844.3,601.8,838.3,610.6z"/>
<circle class="st0" cx="1045" cy="267" r="19"/>
<path class="st0" d="M1000,32H0V0h1000V32z M2,30h996V2H2V30z"/>
<path class="st0" d="M22,26c-5.5,0-10-4.5-10-10S16.5,6,22,6s10,4.5,10,10C32,21.5,27.5,26,22,26z M22,8c-4.4,0-8,3.6-8,8s3.6,8,8,8
	s8-3.6,8-8C30,11.6,26.4,8,22,8z"/>
<path class="st0" d="M49,26c-5.5,0-10-4.5-10-10S43.5,6,49,6s10,4.5,10,10C59,21.5,54.5,26,49,26z M49,8c-4.4,0-8,3.6-8,8s3.6,8,8,8
	s8-3.6,8-8C57,11.6,53.4,8,49,8z"/>
<path class="st0" d="M76,26c-5.5,0-10-4.5-10-10S70.5,6,76,6s10,4.5,10,10C86,21.5,81.5,26,76,26z M76,8c-4.4,0-8,3.6-8,8s3.6,8,8,8
	s8-3.6,8-8C84,11.6,80.4,8,76,8z"/>
<rect x="13.5" y="444" class="st1" width="224.5" height="41"/>
<path class="st0" d="M254.5,486h-242v-55h242V486z M14.5,484h238v-51h-238V484z"/>
<path class="st1" d="M159.4,155.2c-5.7,21-25.2,34-25.2,34s-10.3-21.1-4.6-42.1s25.2-34,25.2-34S165,134.2,159.4,155.2z"/>
<path class="st1" d="M107.6,155.2c5.7,21,25.2,34,25.2,34s10.3-21.1,4.6-42.1s-25.2-34-25.2-34S102,134.2,107.6,155.2z"/>
<path class="st0" d="M116,150.7c15.6,15.2,17.5,38.5,17.5,38.5s-23.4-1.3-39-16.5S77,134.2,77,134.2S100.4,135.5,116,150.7z"/>
<path class="st0" d="M151,150.7c-15.6,15.2-17.5,38.5-17.5,38.5s23.4-1.3,39-16.5s17.5-38.5,17.5-38.5S166.6,135.5,151,150.7z"/>
<rect x="49.5" y="76.5" class="st0" width="168" height="10"/>
<rect x="49.5" y="226.5" class="st0" width="168" height="10"/>
<rect x="49.5" y="248.5" class="st0" width="168" height="10"/>
<rect x="49.5" y="270.5" class="st0" width="168" height="10"/>
<rect x="782.5" y="76.5" class="st0" width="168" height="10"/>
<rect x="782.5" y="98.5" class="st0" width="168" height="10"/>
<rect x="782.5" y="120.5" class="st0" width="168" height="10"/>
</svg>
