<svg width="937" height="832" viewBox="0 0 937 832" fill="none" xmlns="http://www.w3.org/2000/svg">
<g clip-path="url(#clip0)">
<path d="M173.984 317.049L247.485 686.542L600.475 818.244C625.014 752.722 630.731 681.642 616.978 613.041C576.384 408.976 378.049 276.456 173.984 317.049Z" fill="#F2F2F2"/>
<path d="M143.009 800.536C154.559 821.956 179.072 831.151 179.072 831.151C179.072 831.151 184.859 805.617 173.309 784.197C161.759 762.778 137.246 753.583 137.246 753.583C137.246 753.583 131.459 779.116 143.009 800.536Z" fill="#3F3D56"/>
<path d="M150.947 793.489C171.8 806.034 179.831 830.953 179.831 830.953C179.831 830.953 154.053 835.532 133.201 822.986C112.348 810.441 104.318 785.522 104.318 785.522C104.318 785.522 130.095 780.943 150.947 793.489Z" fill="#C41D7F"/>
<path d="M172.014 831.85C204.684 745.92 209.404 634.73 202.544 513.06C202.444 511.14 202.334 509.213 202.214 507.28C201.184 489.74 199.93 472.003 198.454 454.07H269.764C268.794 472.69 268.104 491.13 267.694 509.39C267.664 510.6 267.644 511.8 267.614 512.99C265.334 629.91 275.804 738.55 309.904 831.85H172.014Z" fill="#3F3D56"/>
<path d="M706.957 831.174C684.677 827.399 663.25 824.158 642.676 821.449L650.809 805.68C648.067 804.727 636.017 813.758 636.017 813.758L646.691 767.983C632.897 769.646 625.884 816.385 625.884 816.385L610.474 800.583L617.934 818.349C554.966 810.933 500.585 808.184 454.844 808.085L461.806 794.588C459.063 793.635 447.014 802.666 447.014 802.666L457.687 756.891C443.894 758.555 436.881 805.293 436.881 805.293L421.47 789.491L429.372 808.308C398.033 808.826 366.74 810.951 335.619 814.676C342.66 793.651 366.579 773.653 366.579 773.653C348.312 779.086 338.73 788.19 333.723 796.677C333.276 753.294 340.49 710.172 355.032 669.297C355.032 669.297 317.276 751.458 322.093 806.609L322.67 816.402C290.661 820.985 278.068 831.754 278.068 831.754L706.957 831.174Z" fill="#3F3D56"/>
<path d="M466.048 316.362C463.566 459.929 358.375 508.247 229.697 506.022C226.708 505.97 223.734 505.892 220.775 505.786C214.813 505.578 208.916 505.253 203.082 504.813C87.0621 496.078 -2.2645 441.822 0.0437382 308.305C2.43245 170.132 227.622 12.6132 244.034 0C244.048 0.00026 468.529 172.806 466.048 316.362Z" fill="#C41D7F"/>
<path d="M386.163 653.389C401.979 653.389 414.8 640.568 414.8 624.753C414.8 608.937 401.979 596.116 386.163 596.116C370.348 596.116 357.527 608.937 357.527 624.753C357.527 640.568 370.348 653.389 386.163 653.389Z" fill="#2F2E41"/>
<path d="M355.141 615.685C370.956 615.685 383.777 602.864 383.777 587.048C383.777 571.233 370.956 558.412 355.141 558.412C339.325 558.412 326.504 571.233 326.504 587.048C326.504 602.864 339.325 615.685 355.141 615.685Z" fill="#2F2E41"/>
<path d="M330.44 610.761C334.147 613.44 338.441 615.192 342.963 615.871C347.486 616.55 352.105 616.136 356.435 614.664C360.765 613.192 364.679 610.704 367.85 607.409C371.021 604.114 373.357 600.107 374.662 595.724C374.168 599.652 372.865 603.435 370.836 606.834C368.806 610.233 366.094 613.174 362.87 615.472C359.647 617.769 355.982 619.374 352.107 620.184C348.232 620.993 344.231 620.991 340.357 620.177C336.483 619.362 332.819 617.753 329.599 615.452C326.378 613.15 323.669 610.206 321.643 606.805C319.618 603.403 318.319 599.619 317.83 595.691C317.341 591.762 317.671 587.775 318.801 583.981C318.159 589.078 318.901 594.255 320.949 598.966C322.997 603.678 326.276 607.752 330.44 610.761V610.761Z" fill="#2F2E41"/>
<path d="M393.561 659.355C406.477 659.355 416.947 648.884 416.947 635.969C416.947 623.053 406.477 612.582 393.561 612.582C380.645 612.582 370.175 623.053 370.175 635.969C370.175 648.884 380.645 659.355 393.561 659.355Z" fill="#FFB8B8"/>
<path d="M401.674 655.059C401.674 655.059 392.129 669.377 393.561 675.582C393.561 675.582 399.765 678.446 399.765 679.4C399.765 680.355 405.493 689.423 405.493 689.423L412.174 698.491L415.038 710.423H401.197L385.925 698.491L371.129 682.264C371.129 682.264 361.107 677.491 355.857 681.309L352.993 683.696C352.993 683.696 363.016 670.332 367.788 667.468C367.788 667.468 376.379 656.968 375.425 646.469L401.674 655.059Z" fill="#FFB8B8"/>
<path d="M397.856 675.105C397.856 675.105 407.402 680.355 411.22 690.377C415.038 700.4 432.22 733.809 432.22 733.809C432.22 733.809 433.652 755.286 432.697 756.241C431.743 757.195 420.765 746.695 418.856 743.832C416.947 740.968 409.311 706.605 409.311 706.605L396.902 686.559L394.516 675.105H397.856Z" fill="#FFB8B8"/>
<path d="M427.924 735.241L432.22 733.809C432.22 733.809 458.47 717.582 459.902 710.423C461.333 703.264 482.333 679.4 482.811 692.286C483.288 705.173 467.538 719.491 467.538 719.491C467.538 719.491 433.174 767.695 431.265 753.854L427.924 735.241Z" fill="#FFB8B8"/>
<path d="M384.493 702.309C384.493 702.309 384.016 715.673 365.402 720.445C365.402 720.445 346.311 746.218 344.402 757.672C342.493 769.127 292.38 827.831 292.38 827.831C292.38 827.831 246.084 833.558 246.084 827.831C246.084 822.104 284.743 817.331 284.743 817.331C284.743 817.331 325.311 757.195 327.22 749.081C329.129 740.968 347.266 680.832 355.857 681.309C355.857 681.309 363.97 677.491 368.743 680.355C373.516 683.218 384.493 702.309 384.493 702.309Z" fill="#FFB8B8"/>
<path d="M440.333 756.241C440.333 756.241 473.742 711.377 480.901 708.514C488.06 705.65 497.129 703.741 502.379 710.423C507.629 717.105 569.674 795.377 569.674 795.377C569.674 795.377 591.628 817.809 602.605 813.513C602.605 813.513 608.333 818.286 594.969 819.24C586.279 819.7 577.573 818.733 569.196 816.377C569.196 816.377 561.083 817.809 555.356 819.24C549.628 820.672 542.469 821.149 542.947 817.331L544.856 802.059C544.856 802.059 495.697 761.491 494.265 744.309C494.265 744.309 495.22 736.195 494.265 737.15C493.311 738.104 473.265 759.582 464.197 764.354C455.129 769.127 432.697 775.809 432.697 775.809L440.333 756.241Z" fill="#FFB8B8"/>
<path opacity="0.1" d="M440.333 756.241C440.333 756.241 473.742 711.377 480.901 708.514C488.06 705.65 497.129 703.741 502.379 710.423C507.629 717.105 569.674 795.377 569.674 795.377C569.674 795.377 591.628 817.809 602.605 813.513C602.605 813.513 608.333 818.286 594.969 819.24C586.279 819.7 577.573 818.733 569.196 816.377C569.196 816.377 561.083 817.809 555.356 819.24C549.628 820.672 542.469 821.149 542.947 817.331L544.856 802.059C544.856 802.059 495.697 761.491 494.265 744.309C494.265 744.309 495.22 736.195 494.265 737.15C493.311 738.104 473.265 759.582 464.197 764.354C455.129 769.127 432.697 775.809 432.697 775.809L440.333 756.241Z" fill="black"/>
<path d="M435.083 762.445C435.083 762.445 478.992 745.741 484.72 741.922C490.447 738.104 510.969 730.468 521.469 739.059C531.969 747.65 583.037 787.263 600.219 791.081C617.401 794.9 646.992 803.968 646.992 803.968C646.992 803.968 666.082 805.399 645.56 813.513C645.56 813.513 620.264 815.899 615.969 819.718C611.673 823.536 597.355 828.308 596.401 822.104C595.446 815.899 592.583 807.786 587.333 806.831C582.083 805.877 519.083 788.695 509.538 770.081C509.538 770.081 488.06 782.013 474.697 795.854C461.333 809.695 429.833 817.331 429.833 817.331L435.083 762.445Z" fill="#FFB8B8"/>
<path d="M419.334 747.172C419.334 747.172 440.255 752.733 441.965 750.669C443.674 748.604 452.742 760.059 444.152 782.968C435.561 805.877 437.47 816.377 432.697 819.718C427.924 823.058 405.493 817.808 398.811 820.195C392.129 822.581 383.538 824.49 380.675 810.649C377.811 796.809 370.652 772.468 372.084 769.127C373.516 765.786 381.152 758.15 381.152 758.15L396.902 750.036L419.334 747.172Z" fill="#2F2E41"/>
<path d="M347.027 693.48C347.027 693.48 350.35 684.172 356.518 682.427C357.039 682.285 357.553 682.117 358.058 681.922C360.375 681.002 367.442 678.994 372.561 686.082C378.766 694.673 384.493 704.695 379.72 710.423C374.947 716.15 365.402 719.491 365.402 719.491L358.243 728.559C358.243 728.559 372.561 754.331 372.561 766.263C372.561 766.263 373.038 771.036 381.152 762.445C389.266 753.854 422.469 747.915 422.469 747.915C422.469 747.915 415.515 738.582 420.765 734.286C426.015 729.991 430.822 712.881 418.396 706.163L397.141 674.866L393.322 675.343C393.322 675.343 398.334 679.877 398.811 682.264C399.288 684.65 418.379 701.355 410.743 704.218C403.106 707.082 390.697 700.877 385.447 693.718C382.56 689.781 378.517 684.399 373.399 680.989C370.771 679.274 367.737 678.282 364.603 678.114C361.47 677.945 358.347 678.607 355.55 680.031L353.948 680.832C350.828 683.016 348.38 686.027 346.88 689.527L346.311 690.854L347.027 693.48Z" fill="#2F2E41"/>
<path d="M378.527 650.525C390.125 650.525 399.527 641.123 399.527 629.525C399.527 617.927 390.125 608.525 378.527 608.525C366.929 608.525 357.527 617.927 357.527 629.525C357.527 641.123 366.929 650.525 378.527 650.525Z" fill="#2F2E41"/>
<path d="M396.186 636.207C406.466 636.207 414.799 629.69 414.799 621.65C414.799 613.611 406.466 607.094 396.186 607.094C385.906 607.094 377.572 613.611 377.572 621.65C377.572 629.69 385.906 636.207 396.186 636.207Z" fill="#2F2E41"/>
<path d="M389.266 650.048C390.979 650.048 392.368 647.591 392.368 644.559C392.368 641.528 390.979 639.071 389.266 639.071C387.552 639.071 386.163 641.528 386.163 644.559C386.163 647.591 387.552 650.048 389.266 650.048Z" fill="#A0616A"/>
<path d="M384.016 596.288V634.298H394.993V596.288C394.993 595.61 394.723 594.959 394.243 594.479C393.764 594 393.113 593.73 392.435 593.73H386.574C385.895 593.73 385.245 594 384.765 594.479C384.285 594.959 384.016 595.61 384.016 596.288Z" fill="#FF6584"/>
<path d="M389.504 653.866C396.094 653.866 401.436 648.524 401.436 641.934C401.436 635.345 396.094 630.003 389.504 630.003C382.914 630.003 377.572 635.345 377.572 641.934C377.572 648.524 382.914 653.866 389.504 653.866Z" fill="#C41D7F"/>
<path d="M389.504 647.184C392.404 647.184 394.754 644.834 394.754 641.934C394.754 639.035 392.404 636.684 389.504 636.684C386.605 636.684 384.254 639.035 384.254 641.934C384.254 644.834 386.605 647.184 389.504 647.184Z" fill="#F2F2F2"/>
<path d="M389.504 643.366C390.295 643.366 390.936 642.725 390.936 641.934C390.936 641.144 390.295 640.503 389.504 640.503C388.713 640.503 388.072 641.144 388.072 641.934C388.072 642.725 388.713 643.366 389.504 643.366Z" fill="#FF6584"/>
<path opacity="0.1" d="M384.016 596.288V598.025H394.993V596.288C394.993 595.61 394.723 594.959 394.243 594.479C393.764 594 393.113 593.73 392.435 593.73H386.574C385.895 593.73 385.245 594 384.765 594.479C384.285 594.959 384.016 595.61 384.016 596.288Z" fill="black"/>
<path d="M511.517 690.447L483.415 662.345C482.432 661.362 481.098 660.81 479.708 660.81C478.318 660.81 476.985 661.362 476.002 662.345L450.722 687.625C449.739 688.608 449.187 689.942 449.187 691.332C449.187 692.722 449.739 694.055 450.722 695.038L476.978 721.295C477.915 722.231 479.171 722.778 480.494 722.827C481.817 722.875 483.11 722.421 484.112 721.555L511.237 698.12C511.782 697.649 512.224 697.071 512.536 696.421C512.848 695.772 513.022 695.065 513.048 694.345C513.075 693.625 512.952 692.907 512.689 692.236C512.425 691.566 512.026 690.957 511.517 690.447V690.447Z" fill="#2F2E41"/>
<path d="M503.572 694.911L478.992 670.332L458.708 690.616L482.333 714.241L503.572 694.911Z" fill="#F2F2F2"/>
<path d="M480.663 703.794C487.15 703.794 492.409 698.535 492.409 692.048C492.409 685.561 487.15 680.302 480.663 680.302C474.176 680.302 468.917 685.561 468.917 692.048C468.917 698.535 474.176 703.794 480.663 703.794Z" fill="#C41D7F"/>
<path opacity="0.1" d="M485.891 702.059C487.856 700.213 489.126 697.747 489.488 695.075C489.849 692.403 489.281 689.688 487.878 687.386C486.474 685.083 484.322 683.334 481.781 682.431C479.241 681.528 476.467 681.527 473.925 682.427C475.298 681.465 476.861 680.809 478.509 680.502C480.157 680.194 481.851 680.243 483.479 680.645C485.106 681.047 486.629 681.792 487.944 682.831C489.259 683.87 490.337 685.179 491.104 686.669C491.872 688.159 492.312 689.796 492.394 691.471C492.477 693.145 492.2 694.817 491.582 696.376C490.965 697.934 490.021 699.342 488.814 700.505C487.607 701.668 486.165 702.56 484.585 703.12C485.045 702.798 485.481 702.443 485.891 702.059V702.059Z" fill="black"/>
<path d="M474.888 689.714C473.487 691.03 473.413 695.768 475.552 698.044C477.691 700.32 481.232 699.273 482.633 697.957C484.034 696.64 482.763 695.554 480.625 693.278C478.486 691.001 476.289 688.397 474.888 689.714Z" fill="#F2F2F2"/>
<path d="M486.812 695.72C488.734 695.72 490.293 694.161 490.293 692.239C490.293 690.317 488.734 688.759 486.812 688.759C484.89 688.759 483.332 690.317 483.332 692.239C483.332 694.161 484.89 695.72 486.812 695.72Z" fill="#2F2E41"/>
<path d="M480.556 689.062C482.478 689.062 484.037 687.503 484.037 685.581C484.037 683.659 482.478 682.101 480.556 682.101C478.634 682.101 477.076 683.659 477.076 685.581C477.076 687.503 478.634 689.062 480.556 689.062Z" fill="#2F2E41"/>
<path d="M486.812 693.109C487.293 693.109 487.682 692.72 487.682 692.239C487.682 691.759 487.293 691.369 486.812 691.369C486.332 691.369 485.942 691.759 485.942 692.239C485.942 692.72 486.332 693.109 486.812 693.109Z" fill="#F2F2F2"/>
<path d="M487.187 690.531C487.427 690.531 487.622 690.337 487.622 690.096C487.622 689.856 487.427 689.661 487.187 689.661C486.946 689.661 486.752 689.856 486.752 690.096C486.752 690.337 486.946 690.531 487.187 690.531Z" fill="#F2F2F2"/>
<path d="M480.931 683.874C481.171 683.874 481.366 683.679 481.366 683.439C481.366 683.198 481.171 683.004 480.931 683.004C480.691 683.004 480.496 683.198 480.496 683.439C480.496 683.679 480.691 683.874 480.931 683.874Z" fill="#F2F2F2"/>
<path d="M480.556 686.451C481.037 686.451 481.426 686.062 481.426 685.581C481.426 685.101 481.037 684.711 480.556 684.711C480.076 684.711 479.686 685.101 479.686 685.581C479.686 686.062 480.076 686.451 480.556 686.451Z" fill="#F2F2F2"/>
<path d="M267.694 509.39L266.034 492L257.874 454.07L239.894 370.47L319.574 224.7L240.194 351.98L241.054 299.01L295.974 193.54L241.284 284.98L242.834 189.7L301.634 105.74L243.084 174.72L244.044 0.739998V0L244.014 0.75L238.224 221.37L178.674 130.25L237.504 240.07L231.934 346.49L231.764 343.67L162.844 247.36L231.554 353.65L230.864 366.95L230.734 367.16L230.794 368.25L213.154 454.07L202.214 507.28C202.334 509.21 202.444 511.137 202.544 513.06C212.574 513.28 261.054 512.92 267.614 512.99L267.694 509.39Z" fill="#3F3D56"/>
</g>
<defs>
<clipPath id="clip0">
<rect width="936.068" height="831.85" fill="white"/>
</clipPath>
</defs>
</svg>
