<?xml version="1.0" encoding="utf-8"?>
<!-- Generator: Adobe Illustrator 23.0.3, SVG Export Plug-In . SVG Version: 6.00 Build 0)  -->
<svg version="1.1" id="bcc9b610-7a91-4b40-ac6c-fb3fc22936db"
	 xmlns="http://www.w3.org/2000/svg" xmlns:xlink="http://www.w3.org/1999/xlink" x="0px" y="0px" viewBox="0 0 894.1 610.9"
	 style="enable-background:new 0 0 894.1 610.9;" xml:space="preserve">
<style type="text/css">
	.st0{fill:#D0CDE1;}
	.st1{fill:#3F3D56;}
	.st2{fill:#FF6584;}
	.st3{fill:#C41D7F;}
	.st4{fill:#F1F1F1;}
	.st5{fill:#98825D;}
	.st6{fill:#2F2E41;}
	.st7{opacity:0.1;enable-background:new    ;}
	.st8{fill:#A0616A;}
</style>
<title>our_solution</title>
<ellipse class="st0" cx="447.1" cy="582.9" rx="447.1" ry="28.1"/>
<rect x="187.1" class="st1" width="520" height="212.1"/>
<path class="st2" d="M261.8,79H223c-2.6-15.3-2.6-30.9,0-46.2h38.8C257.4,47.9,257.3,63.9,261.8,79z"/>
<path class="st3" d="M342.5,66h38.8c2.6-15.3,2.6-30.9,0-46.2h-38.8C346.9,34.9,346.9,50.9,342.5,66z"/>
<path class="st4" d="M585.8,87.8c20.5,0.2,41-0.4,61.4-1.9l-1.4-1.8c-3.3,8.5-3.3,17.4-2.8,26.4c0.1,2.2,0.8,5.3,0.4,7.5
	c-0.6,2.8-3.1,2.1-5.6,2.2c-5.5,0.2-11,0.3-16.5,0.4c-5.2,0.1-10.4,0.1-15.6,0.1c-2.4,0-4.9,0-7.3-0.1c-2.9,0-6.1,0.8-6.9-2.5
	c-0.5-2.1,0-4.9,0-7.1l0-8l0-16c0-0.8-0.7-1.4-1.5-1.4c-0.7,0-1.3,0.6-1.4,1.4l0,19.6l0,8.9c0,1.8-0.4,3.9,0.3,5.6
	c1.5,3.9,8.1,2.4,11.2,2.4c6.4,0.1,12.9,0,19.3,0c6.4-0.1,12.8-0.2,19.3-0.4c2.8-0.1,6.6,0.5,7.4-2.9c0.6-2.4-0.1-5.5-0.2-8
	c-0.1-2.8-0.3-5.6-0.3-8.4c-0.1-6.5,0.6-12.9,3-18.9c0.2-0.8-0.2-1.5-1-1.7c-0.1,0-0.2,0-0.4,0c-20.4,1.5-40.9,2.1-61.4,1.9
	c-0.8,0-1.4,0.7-1.4,1.5C584.4,87.2,585,87.8,585.8,87.8L585.8,87.8z"/>
<path class="st4" d="M591.6,89.3c8.8,3.1,17.3,6.8,25.6,11.1c7.4,3.8,17.1,8,22.2,14.9c1.1,1.4,3.5,0,2.4-1.4
	c-5.2-7-14.2-11.1-21.7-15.1c-9-4.7-18.2-8.8-27.8-12.1C590.6,86,589.9,88.7,591.6,89.3L591.6,89.3z"/>
<path class="st4" d="M646.7,84.3c-9.3,4-17.2,11.6-25.5,17.3c-9,6.1-18.3,11.9-27.8,17.2c-1.6,0.9-0.2,3.3,1.4,2.4
	c9.5-5.3,18.8-11,27.8-17.2c8.3-5.7,16.2-13.3,25.5-17.3C649.8,86,648.3,83.6,646.7,84.3z"/>
<path class="st4" d="M403.6,93c19,0.3,38,0.2,56.9-0.2c1.8,0,1.8-2.9,0-2.8c-19,0.4-38,0.5-56.9,0.2c-0.8,0-1.4,0.7-1.4,1.5
	C402.2,92.4,402.8,93,403.6,93L403.6,93z"/>
<path class="st4" d="M405.2,105.8c19.5,0.3,39,0.2,58.5-0.3c1.8,0,1.8-2.9,0-2.8c-19.5,0.5-39,0.6-58.5,0.3c-0.8,0-1.4,0.7-1.4,1.5
	C403.8,105.2,404.4,105.8,405.2,105.8z"/>
<path class="st4" d="M403,119.6l55.3-2.6c1.8-0.1,1.8-2.9,0-2.8l-55.3,2.6C401.2,116.9,401.2,119.7,403,119.6z"/>
<path class="st4" d="M489.2,106.2h52.7c0.8,0,1.4-0.7,1.4-1.5c0-0.7-0.6-1.3-1.4-1.4h-52.7c-0.8,0-1.4,0.7-1.4,1.5
	C487.9,105.6,488.5,106.2,489.2,106.2z"/>
<path class="st4" d="M539.6,90.1l8.2,7.5c0.9,0.9,3.5,2.6,4.1,3.8c1.2,2.3-0.1,1.8-2.2,2.6c-5.1,2-9.8,4.9-13.9,8.6
	c-1.4,1.2,0.6,3.2,2,2c3.7-3.3,8-6,12.6-7.9c1.7-0.7,4.8-1,5.6-3c1-2.4-2.1-4.2-3.6-5.5l-11-10C540.3,86.9,538.3,88.9,539.6,90.1
	L539.6,90.1z"/>
<path class="st3" d="M411.8,200h38.8c2.6-15.3,2.6-30.9,0-46.2h-38.8C416.1,168.9,416.1,184.9,411.8,200z"/>
<path class="st3" d="M250.3,165.3h38.8c2.6-15.3,2.6-30.9,0-46.2h-38.8C254.7,134.2,254.7,150.2,250.3,165.3z"/>
<path class="st3" d="M495.3,63.9h38.8c2.6-15.3,2.6-30.9,0-46.2h-38.8C499.7,32.8,499.7,48.8,495.3,63.9z"/>
<polygon class="st5" points="880.9,534.8 886,555.1 863.7,561.1 861.7,539.9 "/>
<polygon class="st5" points="800,560.1 800,579.3 777.8,583.4 773.8,573.3 781.9,556.1 "/>
<path class="st6" d="M844.5,350.9l-3,27.3l2,52.6c1.6,0,3,1.3,3,2.9c0,0,0,0.1,0,0.1c0,3-3,2,0,4c1.6,1.1,3.3,2.1,5.1,3l32.3,98
	c0,0-8.1,10.1-23.2,7.1l-3-10.1c0,0-6.1-6.1-6.1-9.1s2-4,0-7.1S819.3,455,819.3,455l-14.1-25.3l-4,34.4c0,0,8.1,43.5,6.1,63.7
	c-2,20.2-6.1,41.4-6.1,41.4l-24.3-4c-0.1-3.3-1.2-6.4-3-9.1c-3-4-7.1-3-3-6.1c4-3,9.1,0,5.1-4s-4-8.1-4-8.1v-3l-6.1-77.8
	l-11.1-102.1L844.5,350.9z"/>
<circle class="st5" cx="775.8" cy="139.7" r="27.3"/>
<polygon class="st5" points="799.5,140.2 810.7,167.5 784.4,186.7 768.2,158.4 "/>
<path class="st0" d="M801.1,160.9l10.1-5.1l6.1,14.1c0,0,39.4,12.1,36.4,67.7c-3,55.6-10.1,76.8-10.1,76.8s17.2,36.4,7.1,40.4
	c-10.1,4-96,19.2-98,5.1c-2-14.1,7.1-97,7.1-97s-3-59.6,22.2-71.8l-5.1-11.1L801.1,160.9z"/>
<path class="st5" d="M745.5,357c0,0-23.2,24.3-10.1,30.3c13.1,6.1,21.2-27.3,21.2-27.3L745.5,357z"/>
<path class="st6" d="M793,574.3l11.1-4c0,0,12.1,27.3,2,27.3h-26.3c0,0-15.2-5.1-23.2-5.1c-8.1,0-23.2-15.2-12.1-22.2
	s25.3-5.1,25.3-5.1l4-9.1l5.1,14.1C778.8,570.2,784.9,580.3,793,574.3z"/>
<path class="st6" d="M874.8,552c0,0,6.3-4,9.7-2.5s5.4,17.7,5.4,17.7s10.1,12.1-12.1,14.1s-27.3-2-29.3-8.1c-2-6.1,2-12.1,2-12.1
	l6.1-2c0,0,7.1-5.1,5.1-7.1s0-6.1,0-6.1S868.8,560.1,874.8,552z"/>
<path class="st6" d="M785.1,139.2c-0.1-0.9-0.3-1.8-0.6-2.6c-1.5-3.1-7.2-2.2-8.2-5.4c-0.2-0.6-0.2-1.3-0.4-2
	c-0.5-1.6-2.4-2.4-4.1-2.4c-1.7,0.2-3.3,0.7-4.9,1.3c-4,1.1-8.3,0.7-12.4,0.3c-1.8-0.1-3.6-0.5-5.3-1.4c-1.6-1-2.7-2.9-2.1-4.6
	c0.5-1.7,2.4-2.6,3.2-4.2c1.3-2.5-0.3-5.7,0.8-8.3c1.7-4.2,8.1-3.3,11.4-6.4c0.8-0.7,1.4-1.7,2.1-2.5c2.3-2.3,5.8-2.8,9-2.4
	s6.4,1.3,9.6,1.2c3.1-0.1,6.3-1,9.1,0.2c1.7,0.8,3.1,2,4.3,3.5l7.2,7.9c1,0.9,1.8,2.1,2.2,3.4c0.4,1.5,0,3.2,0.2,4.7
	c0.4,3.6,3.8,6.3,4.2,9.9c0.1,1.1,0,2.2-0.2,3.3l-1,7.5c-0.1,0.7-0.2,1.4-0.6,2.1c-0.3,0.5-0.7,0.9-1.1,1.4
	c-0.9,1.4-0.9,3.1-1.3,4.7c-0.5,1.6-2.1,3.1-3.6,2.4c-1-0.5-1.6-4.6-2.7-5.7c-1.6-1.5-2.5-1.3-4.4-1.3
	C791.7,144,786.4,144.4,785.1,139.2z"/>
<path class="st0" d="M789.9,198.3c0,0,30.3,12.1,21.2,39.4s-33.4,111.2-33.4,111.2l-14.1,7.1l-4,11.1l-19.2-7.1l3-15.2
	c0,0,1-1,1-5.1s-4-5.1,1-5.1s5.1-5.1,5.1-5.1l18.2-113.2C768.7,216.5,768.7,197.3,789.9,198.3z"/>
<polygon class="st7" points="812.7,243.3 781.4,350.4 768.2,363.5 775.8,349.9 "/>
<polygon class="st6" points="60.9,179.1 92.6,184.4 103.2,134.1 77.6,123.5 "/>
<circle class="st8" cx="104.5" cy="141.6" r="27.3"/>
<path class="st8" d="M92.6,157.1c0,0,2.6,33.5-17.6,36.2s17.6,62.6,27.4,61.8s27.4-65.3,27.4-65.3s-22.9-15.9-15-30L92.6,157.1z"/>
<path class="st8" d="M58.7,279.3c0,0,3.5,25.6,14.1,25.6s-7.1-29.1-7.1-29.1L58.7,279.3z"/>
<path class="st8" d="M213.1,304.8c0,0,26.5,22.1,22.9,29.1s-26.5-7.9-28.2-25.6L213.1,304.8z"/>
<path class="st8" d="M53.4,389.5l-16.8,62.6l-18.5,75.9h17.6c0,0,6.2-23.8,17.6-36.2c0,0,11.5-19.4,11.5-32.6l27.4-64.4L53.4,389.5z
	"/>
<path class="st8" d="M125.7,393.1l5.3,59.1c0,0-0.9,42.3,0,52.1c0.9,9.7,0,23.8,0,23.8h15.9c0,0,15-52.1,10.6-80.3l6.2-66.2
	L125.7,393.1z"/>
<path class="st6" d="M104.5,230.7c0,0-23.8-18.8-17.6-45.2c0,0-23.8,1-33.6,10.7s2.6,42.3,2.6,42.3s21.2,35.3,17.6,51.2
	s-41.5,99.7-29.1,105s87.3,23.8,125.3-7.1c0,0,9.7-87.3-29.1-115.6v-22.1c0,0,7.1-6.2,3.5-22.1c0,0,15-27.4,6.2-32.6
	s-29.1-13.1-29.1-13.1S123.1,221.9,104.5,230.7z"/>
<path class="st6" d="M58.7,196.3c0,0-11.5-1.8-22.9,15s-41.5,43.2-27.4,56.5s52.1,22.1,52.1,22.1l8.8-15.9l-37.9-18.5l31.8-23.8
	L58.7,196.3z"/>
<path class="st6" d="M146,196.3c0,0,12.4,0,17.6,15s36.2,66.2,36.2,66.2l17.6,27.4L205.1,319l-34.4-38.8l-32.6-53.8L146,196.3z"/>
<path class="st6" d="M39.3,526.3H14.5l-5.3,43.2c0,0-14.1,22.9,7.1,20.3c21.2-2.6,14.1-26.5,14.1-26.5l5.3-8.8l1.8,18.5l1.8-0.9
	v-20.3C39.3,551.9,49,543.1,39.3,526.3z"/>
<path class="st6" d="M151.3,526.3l-22.9-1.8l-4.4,49.4c0,0-2.6,18.5,13.2,15.9c15.9-2.6,10.6-17.6,10.6-17.6v-27.3L151.3,526.3z"/>
<path class="st6" d="M84.7,113.8c0,0-12.9,4.3-13.5,21.2c-0.1,2.7,0.2,5.4,0.9,8c0.7,3.1,1.2,9.7-4.4,18.3
	c-3.8,5.7-7.2,11.6-10.3,17.7l0,0.1l14.1,1.8l3-23.4c1.5-11.3,4.6-22.4,9.3-32.8l0.1-0.2c0,0,6.2,11.5,18.5,11.5l-4.4-4.4
	c0,0,19.4,7.9,26.5,7.9c0,0,5.3,3.5,0,8.8s-15.9,17.6-9.7,27.4s0.9,12.4,0.9,12.4l9.7-5.3l4.4-2.6v3.5l22.9-2.6
	c0,0,6.2-0.9-7.1-15.9c0,0-3.5-5.8-2-10.8c1.3-3.8,1.6-7.9,1-11.9C141.6,125.8,130,92.9,84.7,113.8z"/>
<path class="st1" d="M586.1,609.2c-0.1-0.2-3-4.9-3.9-14.7c-0.9-9-0.3-24.2,7.6-45.4c14.9-40.1-3.4-72.5-3.6-72.8l0.9-0.5
	c3.5,6.8,6.1,14,7.6,21.5c3.7,17.4,2.4,35.5-3.9,52.2c-14.9,40.1-3.8,59-3.7,59.2L586.1,609.2z"/>
<circle class="st1" cx="580.3" cy="467.1" r="6.8"/>
<circle class="st1" cx="601.8" cy="492.2" r="6.8"/>
<circle class="st3" cx="587.1" cy="509" r="6.8"/>
<circle class="st3" cx="604.9" cy="523.1" r="6.8"/>
<circle class="st1" cx="581.9" cy="545.1" r="6.8"/>
<path class="st1" d="M590.2,609.5c0,0-6.8-16.7,13.6-29.3L590.2,609.5z"/>
<path class="st1" d="M581.9,609.2c0,0-3.1-17.8-27.1-17.7L581.9,609.2z"/>
<path class="st0" d="M311.9,559.8c-0.1-0.2-3-4.9-3.9-14.7c-0.9-9-0.3-24.2,7.6-45.4c14.9-40.1-3.4-72.5-3.6-72.8l0.9-0.5
	c3.5,6.8,6.1,14,7.6,21.5c3.7,17.4,2.4,35.5-3.9,52.2c-14.9,40.1-3.8,59-3.7,59.2L311.9,559.8z"/>
<circle class="st1" cx="306.1" cy="417.7" r="6.8"/>
<circle class="st1" cx="327.6" cy="442.8" r="6.8"/>
<circle class="st0" cx="312.9" cy="459.5" r="6.8"/>
<circle class="st0" cx="330.7" cy="473.7" r="6.8"/>
<circle class="st1" cx="307.7" cy="495.6" r="6.8"/>
<path class="st0" d="M316.1,560c0,0-6.8-16.7,13.6-29.3L316.1,560z"/>
<path class="st0" d="M307.7,559.7c0,0-3.1-17.8-27.1-17.7L307.7,559.7z"/>
</svg>
